<svg id="Layer_1" data-name="Layer 1" xmlns="http://www.w3.org/2000/svg" viewBox="0 0 414.95 46.74"><path d="M130.68,85.7l-7.38,41.7h-6.84l5-28.56L103.74,127.4H99L91.26,98.84l-5,28.56H79.38l7.38-41.7h7.38L103,118.4l20.34-32.7Z" transform="translate(-79.38 -81.2)"/><path d="M136.59,101.9a19.45,19.45,0,0,1,6.69-6,17.25,17.25,0,0,1,8.28-2.13,12.86,12.86,0,0,1,6.54,1.53,10.54,10.54,0,0,1,4,3.81l.84-4.8h6.9L164,127.4h-6.9l.9-4.92a17.59,17.59,0,0,1-5.43,3.9,16.3,16.3,0,0,1-7.11,1.56,13,13,0,0,1-6.63-1.68,11.78,11.78,0,0,1-4.56-4.77,14.86,14.86,0,0,1-1.65-7.11,19.23,19.23,0,0,1,.36-3.66A21.65,21.65,0,0,1,136.59,101.9Zm23.67,6.48a8.43,8.43,0,0,0-2.37-6.33A8.13,8.13,0,0,0,152,99.74a11.2,11.2,0,0,0-5.16,1.29,12.65,12.65,0,0,0-4.38,3.78,13.65,13.65,0,0,0-2.46,5.91,11.94,11.94,0,0,0-.24,2.46,8.72,8.72,0,0,0,2.37,6.45A8,8,0,0,0,148,122a11,11,0,0,0,5.16-1.32,12.73,12.73,0,0,0,4.38-3.87,14.11,14.11,0,0,0,2.46-6A11.94,11.94,0,0,0,160.26,108.38Z" transform="translate(-79.38 -81.2)"/><path d="M189.45,95.48a11.81,11.81,0,0,1,6.21-1.68l-1.26,7.08h-1.74a9.68,9.68,0,0,0-6.36,2q-2.4,2-3.36,6.84l-3.12,17.7H173l5.82-33.06h6.84l-1,5.82A15.56,15.56,0,0,1,189.45,95.48Z" transform="translate(-79.38 -81.2)"/><path d="M208.68,94.34l-5.82,33.06H196l5.82-33.06Zm-5.22-5.4a3.5,3.5,0,0,1-1-2.58A4.87,4.87,0,0,1,204,82.73a5.09,5.09,0,0,1,3.63-1.53,3.47,3.47,0,0,1,2.61,1,3.55,3.55,0,0,1,1,2.58,4.91,4.91,0,0,1-1.56,3.63A5,5,0,0,1,206.1,90,3.57,3.57,0,0,1,203.46,88.94Z" transform="translate(-79.38 -81.2)"/><path d="M216.15,101.9a19.45,19.45,0,0,1,6.69-6,17.25,17.25,0,0,1,8.28-2.13,12.86,12.86,0,0,1,6.54,1.53,10.54,10.54,0,0,1,4,3.81l.84-4.8h6.9l-5.82,33.06h-6.9l.9-4.92a17.59,17.59,0,0,1-5.43,3.9,16.3,16.3,0,0,1-7.11,1.56,13,13,0,0,1-6.63-1.68,11.78,11.78,0,0,1-4.56-4.77,14.86,14.86,0,0,1-1.65-7.11,19.23,19.23,0,0,1,.36-3.66A21.65,21.65,0,0,1,216.15,101.9Zm23.67,6.48a8.43,8.43,0,0,0-2.37-6.33,8.13,8.13,0,0,0-5.91-2.31,11.2,11.2,0,0,0-5.16,1.29,12.65,12.65,0,0,0-4.38,3.78,13.65,13.65,0,0,0-2.46,5.91,11.94,11.94,0,0,0-.24,2.46,8.72,8.72,0,0,0,2.37,6.45,8,8,0,0,0,5.91,2.37,11,11,0,0,0,5.16-1.32,12.73,12.73,0,0,0,4.38-3.87,14.11,14.11,0,0,0,2.46-6A11.94,11.94,0,0,0,239.82,108.38Z" transform="translate(-79.38 -81.2)"/><path d="M278.76,126.59a11.18,11.18,0,0,1-4.86-3.6,9,9,0,0,1-1.8-5.61q0-.42.12-1.5H279a5.46,5.46,0,0,0,1.62,4.59A7.3,7.3,0,0,0,286,122.3a9.72,9.72,0,0,0,5.82-1.53,5.12,5.12,0,0,0,2.1-4.41,4.42,4.42,0,0,0-1.05-3,8.86,8.86,0,0,0-2.64-2.07q-1.59-.84-4.41-2a57.38,57.38,0,0,1-5.94-2.82A11.88,11.88,0,0,1,276,103a9.34,9.34,0,0,1-1.59-5.58A11.2,11.2,0,0,1,276.36,91a12.32,12.32,0,0,1,5.31-4.29,18.72,18.72,0,0,1,7.65-1.5,17.59,17.59,0,0,1,7.35,1.41,10.44,10.44,0,0,1,4.68,4,10,10,0,0,1,1.41,6h-7.2a4.74,4.74,0,0,0-1.5-4.11,7.05,7.05,0,0,0-5-1.65,8.88,8.88,0,0,0-5.55,1.59,5.13,5.13,0,0,0-2.07,4.29,4.34,4.34,0,0,0,1.05,2.91,9.15,9.15,0,0,0,2.67,2.1q1.62.87,4.38,2.07a65.2,65.2,0,0,1,6,3,12.61,12.61,0,0,1,3.87,3.57,9.25,9.25,0,0,1,1.62,5.55A10.53,10.53,0,0,1,299,122a12.62,12.62,0,0,1-5.4,4.26,19.65,19.65,0,0,1-8,1.53A18.36,18.36,0,0,1,278.76,126.59Z" transform="translate(-79.38 -81.2)"/><path d="M321.18,83l-7.86,44.4h-6.84L314.34,83Z" transform="translate(-79.38 -81.2)"/><path d="M326.61,101.9a19.45,19.45,0,0,1,6.69-6,17.25,17.25,0,0,1,8.28-2.13,12.89,12.89,0,0,1,6.54,1.53,10.54,10.54,0,0,1,4,3.81l.84-4.8h6.9L354,127.4h-6.9l.9-4.92a17.59,17.59,0,0,1-5.43,3.9,16.33,16.33,0,0,1-7.11,1.56,13,13,0,0,1-6.63-1.68,11.72,11.72,0,0,1-4.56-4.77,14.86,14.86,0,0,1-1.65-7.11,19.23,19.23,0,0,1,.36-3.66A21.65,21.65,0,0,1,326.61,101.9Zm23.67,6.48a8.43,8.43,0,0,0-2.37-6.33A8.15,8.15,0,0,0,342,99.74a11.17,11.17,0,0,0-5.16,1.29,12.56,12.56,0,0,0-4.38,3.78,13.65,13.65,0,0,0-2.46,5.91,11.94,11.94,0,0,0-.24,2.46,8.68,8.68,0,0,0,2.37,6.45A8,8,0,0,0,338,122a11,11,0,0,0,5.16-1.32,12.73,12.73,0,0,0,4.38-3.87,14.24,14.24,0,0,0,2.46-6A12.67,12.67,0,0,0,350.28,108.38Z" transform="translate(-79.38 -81.2)"/><path d="M380.28,95.33a16.42,16.42,0,0,1,7-1.53,13.7,13.7,0,0,1,6.75,1.62,11.44,11.44,0,0,1,4.53,4.59,14.38,14.38,0,0,1,1.62,7,20.85,20.85,0,0,1-.36,3.72,22.54,22.54,0,0,1-3.63,8.91,20,20,0,0,1-6.66,6.12,16.74,16.74,0,0,1-8.25,2.19,13.26,13.26,0,0,1-6.54-1.5,10.46,10.46,0,0,1-4.08-3.84l-.84,4.8H363L370.86,83h6.84l-2.88,16.26A16.54,16.54,0,0,1,380.28,95.33Zm12.84,12.93a7.94,7.94,0,0,0-8.34-8.52,11,11,0,0,0-5.13,1.32,12.58,12.58,0,0,0-4.41,3.84,13.76,13.76,0,0,0-2.46,5.94,11.28,11.28,0,0,0-.24,2.46,8.49,8.49,0,0,0,2.37,6.36,8,8,0,0,0,5.91,2.34,11,11,0,0,0,5.19-1.35,12.92,12.92,0,0,0,4.41-3.93,14.47,14.47,0,0,0,2.46-6A12.67,12.67,0,0,0,393.12,108.26Z" transform="translate(-79.38 -81.2)"/><path d="M416.33,94.34l-5.81,33.06h-6.85l5.83-33.06Zm-5.22-5.4a3.5,3.5,0,0,1-1-2.58,4.84,4.84,0,0,1,1.6-3.63,5.05,5.05,0,0,1,3.62-1.53,3.44,3.44,0,0,1,2.61,1,3.56,3.56,0,0,1,1,2.58,4.92,4.92,0,0,1-1.57,3.63,5,5,0,0,1-3.6,1.53A3.57,3.57,0,0,1,411.11,88.94Z" transform="translate(-79.38 -81.2)"/><path d="M423.8,101.9a19.45,19.45,0,0,1,6.69-6,17.25,17.25,0,0,1,8.28-2.13,12.86,12.86,0,0,1,6.54,1.53,10.54,10.54,0,0,1,4,3.81l.84-4.8H457l-5.82,33.06h-6.9l.9-4.92a17.59,17.59,0,0,1-5.43,3.9,16.3,16.3,0,0,1-7.11,1.56,13,13,0,0,1-6.63-1.68,11.78,11.78,0,0,1-4.56-4.77,14.86,14.86,0,0,1-1.65-7.11,19.23,19.23,0,0,1,.36-3.66A21.65,21.65,0,0,1,423.8,101.9Zm23.67,6.48a8.43,8.43,0,0,0-2.37-6.33,8.13,8.13,0,0,0-5.91-2.31A11.2,11.2,0,0,0,434,101a12.65,12.65,0,0,0-4.38,3.78,13.65,13.65,0,0,0-2.46,5.91,11.94,11.94,0,0,0-.24,2.46,8.72,8.72,0,0,0,2.37,6.45,8,8,0,0,0,5.91,2.37,11,11,0,0,0,5.16-1.32,12.73,12.73,0,0,0,4.38-3.87,14.11,14.11,0,0,0,2.46-6A11.94,11.94,0,0,0,447.47,108.38Z" transform="translate(-79.38 -81.2)"/><path d="M476.15,110.9l12.36,16.5h-9.24l-9.72-14.22L467,127.4h-6.84L468.05,83h6.84l-4.56,25.74,14.52-14.4h9.48Z" transform="translate(-79.38 -81.2)"/></svg>